<svg width="18" height="18" viewBox="0 0 18 18" fill="none" xmlns="http://www.w3.org/2000/svg">
<path d="M3.75 9V9C3.75 10.4019 3.75 11.1029 4.05144 11.625C4.24892 11.967 4.53296 12.2511 4.875 12.4486C5.39711 12.75 6.09808 12.75 7.5 12.75H10.9755C11.8454 12.75 12.2804 12.75 12.6627 12.6065C12.9156 12.5115 13.1493 12.3719 13.3526 12.1941C13.6602 11.9254 13.8662 11.5423 14.2782 10.7761V10.7761C15.3252 8.82916 15.8487 7.85569 15.6928 7.06478C15.592 6.55342 15.3168 6.09292 14.9141 5.76193C14.2914 5.25 13.1861 5.25 10.9755 5.25H7.5C6.09808 5.25 5.39711 5.25 4.875 5.55144C4.53296 5.74892 4.24892 6.03296 4.05144 6.375C3.75 6.89711 3.75 7.59808 3.75 9V9ZM3.75 9V4.5C3.75 3.67157 3.07843 3 2.25 3V3M9.375 7.5V9M9.375 9V10.5M9.375 9H7.875M9.375 9H10.875M6.9375 13.875C6.9375 14.4963 6.43382 15 5.8125 15C5.19118 15 4.6875 14.4963 4.6875 13.875C4.6875 13.2537 5.19118 12.75 5.8125 12.75C6.43382 12.75 6.9375 13.2537 6.9375 13.875ZM12.9375 13.875C12.9375 14.4963 12.4338 15 11.8125 15C11.1912 15 10.6875 14.4963 10.6875 13.875C10.6875 13.2537 11.1912 12.75 11.8125 12.75C12.4338 12.75 12.9375 13.2537 12.9375 13.875Z" stroke="white" stroke-width="1.125" stroke-linecap="round" stroke-linejoin="round"/>
</svg>
