<svg width="13" height="13" viewBox="0 0 13 13" fill="none" xmlns="http://www.w3.org/2000/svg">
<path d="M6.36289 1.92692C6.57762 1.7122 6.68498 1.60484 6.81156 1.52513C6.85359 1.49867 6.89706 1.47457 6.94178 1.45296C7.07645 1.38786 7.2244 1.35372 7.52029 1.28544L9.2362 0.889461C10.716 0.547964 11.4559 0.377215 11.933 0.691773C12.0837 0.791172 12.2127 0.920153 12.3121 1.07089C12.6266 1.54793 12.4559 2.28784 12.1144 3.76766L11.7184 5.48357C11.6501 5.77946 11.616 5.92741 11.5509 6.06208C11.5293 6.1068 11.5052 6.15028 11.4787 6.1923C11.399 6.31888 11.2917 6.42624 11.0769 6.64097L7.13245 10.5855C6.42539 11.2925 6.07186 11.646 5.64397 11.7138C5.50578 11.7357 5.365 11.7357 5.22681 11.7138C4.79892 11.646 4.44539 11.2925 3.73833 10.5855L2.4184 9.26553C1.71134 8.55847 1.35782 8.20494 1.29004 7.77705C1.26816 7.63886 1.26816 7.49809 1.29004 7.35989C1.35782 6.932 1.71134 6.57847 2.4184 5.87142L6.36289 1.92692Z" stroke="#FFC887" stroke-linejoin="round"/>
<path d="M10.3842 4.03013C9.99366 4.42066 9.36049 4.42066 8.96997 4.03013C8.57944 3.63961 8.57944 3.00644 8.96997 2.61592C9.36049 2.2254 9.99366 2.2254 10.3842 2.61592C10.7747 3.00644 10.7747 3.63961 10.3842 4.03013Z" stroke="#FFC887" stroke-linejoin="round"/>
</svg>
